<?xml version="1.0" standalone="no"?><!DOCTYPE svg PUBLIC "-//W3C//DTD SVG 1.1//EN" "http://www.w3.org/Graphics/SVG/1.1/DTD/svg11.dtd"><svg t="1568097856039" class="icon" viewBox="0 0 1129 1024" version="1.1" xmlns="http://www.w3.org/2000/svg" p-id="44274" xmlns:xlink="http://www.w3.org/1999/xlink" width="220.5078125" height="200"><defs><style type="text/css"></style></defs><path d="M1123.34283 750.097655c-9.604414-16.525241-28.036414-25.988414-50.599724-25.988414h-74.328276V304.022069c0-130.08331-104.801103-235.943724-233.613241-235.943724-128.812138 0-233.577931 105.860414-233.577931 235.943724v3.354483h0.03531v390.991448c0 92.583724-74.010483 167.936-164.969931 167.936-90.994759 0-165.005241-75.352276-165.005241-167.936V299.890759h73.904552c22.528 0 40.96-9.463172 50.599724-25.988414 9.639724-16.489931 8.686345-37.075862-2.577655-56.390621L214.207382 30.437517C202.908072 11.087448 185.429451 0 166.185313 0c-19.208828 0-36.722759 11.087448-48.022069 30.437517L9.19552 217.511724c-11.264 19.314759-12.217379 39.90069-2.577655 56.390621 9.604414 16.525241 28.036414 25.988414 50.599724 25.988414h75.458207v398.512551c0 130.08331 104.801103 235.908414 233.613241 235.908414 128.776828 0 233.577931-105.825103 233.577931-235.908414V307.411862h-0.03531V304.022069c0-92.619034 74.010483-167.936 164.969931-167.936 90.994759 0 165.005241 75.316966 165.005241 167.936v420.051862h-75.034482c-22.528 0-40.96 9.463172-50.599725 25.988414-9.639724 16.489931-8.686345 37.075862 2.577656 56.390621l109.003034 187.074206c11.29931 19.350069 28.777931 30.437517 48.022069 30.437518 19.208828 0 36.722759-11.087448 47.986759-30.437518l109.003034-187.074206c11.264-19.314759 12.217379-39.90069 2.577655-56.390621zM166.185313 59.886345L275.788623 247.984552H56.617313l109.568-188.098207z m797.590069 917.362758l-124.928-214.369103h249.82069l-124.89269 214.404414z" p-id="44275"></path></svg>