<?xml version="1.0" standalone="no"?><!DOCTYPE svg PUBLIC "-//W3C//DTD SVG 1.1//EN" "http://www.w3.org/Graphics/SVG/1.1/DTD/svg11.dtd"><svg t="1568099562020" class="icon" viewBox="0 0 1024 1024" version="1.1" xmlns="http://www.w3.org/2000/svg" p-id="63271" xmlns:xlink="http://www.w3.org/1999/xlink" width="200" height="200"><defs><style type="text/css"></style></defs><path d="M170.24 85.333C76.203 85.333 0 161.536 0 255.573V853.76C0 947.797 76.203 1024 170.24 1024h598.187c94.037 0 170.24-76.203 170.24-170.24V373.29c0-38.015-45.952-57.045-72.832-30.165a42.628 42.628 0 0 0-12.502 30.166V853.76c0 46.89-38.016 84.907-84.906 84.907H170.24c-46.89 0-84.907-38.016-84.907-84.907V255.573c0-46.89 38.016-84.906 84.907-84.906h488.32c11.307 0 22.187-4.48 30.165-12.502 26.88-26.88 7.851-72.832-30.165-72.832H170.24z m751.616-38.058c16.683-16.683 43.605-16.811 60.373-0.043 16.683 16.683 16.768 43.605-0.042 60.373L559.872 529.92c-16.683 16.683-43.605 16.81-60.373 0.043a42.555 42.555 0 0 1 0.042-60.374L921.856 47.275z" p-id="63272"></path></svg>