<?xml version="1.0" standalone="no"?><!DOCTYPE svg PUBLIC "-//W3C//DTD SVG 1.1//EN" "http://www.w3.org/Graphics/SVG/1.1/DTD/svg11.dtd"><svg t="1568094727530" class="icon" viewBox="0 0 1024 1024" version="1.1" xmlns="http://www.w3.org/2000/svg" p-id="36515" xmlns:xlink="http://www.w3.org/1999/xlink" width="200" height="200"><defs><style type="text/css"></style></defs><path d="M913.2 3.4H112C53.8 3.4 2.8 54.4 2.8 112.6v582.6c0 58.3 51 109.2 109.2 109.2h109.2V1023h582.6V804.5H913c58.3 0 109.2-51 109.2-109.2V112.6c0.2-58.2-50.8-109.2-109-109.2zM741.5 960.6H283.7V570.4h457.8v390.2z m228.9-265.3c0 21.8-35.4 57.2-57.2 57.2H803.9V586c36.4 0 72.8-36.4 72.8-72.8s-36.4-72.8-72.8-72.8H221.3c-36.4 0-72.8 36.4-72.8 72.8s36.4 72.8 72.8 72.8v166.5H112c-21.8 0-57.2-35.4-57.2-57.2V112.6c0-21.8 35.4-57.2 57.2-57.2h801.1c21.8 0 57.2 35.4 57.2 57.2v582.7z" fill="" p-id="36516"></path></svg>