<?xml version="1.0" standalone="no"?><!DOCTYPE svg PUBLIC "-//W3C//DTD SVG 1.1//EN" "http://www.w3.org/Graphics/SVG/1.1/DTD/svg11.dtd"><svg t="1568097701532" class="icon" viewBox="0 0 1024 1024" version="1.1" xmlns="http://www.w3.org/2000/svg" p-id="42833" xmlns:xlink="http://www.w3.org/1999/xlink" width="200" height="200"><defs><style type="text/css"></style></defs><path d="M993.00383 962.171498H286.374096l50.180618-13.578104c11.9858-2.488295 22.630174-9.548705 30.550735-20.106039l388.99835-473.784702c21.616424-26.362616 18.462535-63.707523-7.439286-86.97257l-230.382336-200.640554c-11.862921-9.471905-26.398456-15.124329-38.880891-15.124329-2.283497 0-4.541395 0.179198-6.466495 0.501755-17.720143 2.524135-32.235198 10.285977-41.922141 22.379297L41.758302 651.02709c-6.865851 9.133989-11.832202 20.643634-14.366576 33.274547L0.061439 954.506935l-0.051199 42.746452c0 15.9896 10.767252 26.736373 26.787572 26.736373h966.206018c18.237258 0 30.97569-12.707713 30.97569-30.909131s-12.733313-30.909131-30.97569-30.909131z m-931.057569-1.919981L89.087109 691.449086l0.0512-1.00351v-0.122879l390.554814-475.223408 226.076459 196.641874c0.455675 0.588794 0.460795 1.525745 0.312317 2.237417L320.483195 886.160738l-1.9763 1.966061L61.95138 961.280627c-0.01536-0.317437-0.01024-0.660473-0.005119-1.02911zM852.343477 300.197958c47.144489-58.249658 41.174628-143.112809-13.828982-193.421426L750.866091 31.794882C728.363916 11.591564 696.947911 0 664.666633 0c-41.271907 0-79.220968 18.134859-104.027119 49.643024l-50.03214 61.828501 291.294367 251.06693 50.441736-62.340497z m-255.331847-195.433566l10.506135-13.107069c15.344487-17.121109 38.02074-27.745003 59.237807-27.745002 17.156948 0 33.397426 5.811142 45.541945 16.194398l85.856421 77.326587c29.583064 25.830142 32.890551 73.926941 7.137209 105.138148l-10.209178 12.738433-198.070339-170.545495z" fill="" p-id="42834"></path></svg>