<?xml version="1.0" standalone="no"?><!DOCTYPE svg PUBLIC "-//W3C//DTD SVG 1.1//EN" "http://www.w3.org/Graphics/SVG/1.1/DTD/svg11.dtd"><svg t="1568616478999" class="icon" viewBox="0 0 1024 1024" version="1.1" xmlns="http://www.w3.org/2000/svg" p-id="1341" xmlns:xlink="http://www.w3.org/1999/xlink" width="200" height="200"><defs><style type="text/css"></style></defs><path d="M653.653333 353.28c0-6.826667-11.946667-11.946667-25.6-11.946667h-324.266666c-13.653333 0-25.6 5.12-25.6 11.946667v8.533333c0 6.826667 11.946667 13.653333 25.6 13.653334h324.266666c13.653333 0 25.6-5.12 25.6-13.653334v-8.533333zM628.053333 477.866667h-324.266666c-13.653333 0-25.6 5.12-25.6 11.946666v8.533334c0 6.826667 11.946667 13.653333 25.6 13.653333h324.266666c13.653333 0 25.6-5.12 25.6-13.653333v-8.533334c0-6.826667-11.946667-11.946667-25.6-11.946666zM175.786667 819.2V153.6h580.266666v366.933333c18.773333 5.12 35.84 11.946667 51.2 20.48V187.733333c0-47.786667-37.546667-85.333333-85.333333-85.333333h-512c-47.786667 0-85.333333 37.546667-85.333333 85.333333v597.333334c0 47.786667 37.546667 85.333333 85.333333 85.333333h295.253333c-10.24-15.36-18.773333-32.426667-25.6-51.2H175.786667z m315.733333-204.8h-187.733333c-13.653333 0-25.6 5.12-25.6 11.946667v8.533333c0 6.826667 11.946667 13.653333 25.6 13.653333h187.733333c13.653333 0 25.6-5.12 25.6-13.653333v-8.533333c0-6.826667-11.946667-11.946667-25.6-11.946667z m213.333333-34.133333c-93.866667 0-170.666667 76.8-170.666666 170.666666s76.8 170.666667 170.666666 170.666667 170.666667-76.8 170.666667-170.666667-76.8-170.666667-170.666667-170.666666z m0 315.733333c-80.213333 0-145.066667-64.853333-145.066666-145.066667s64.853333-145.066667 145.066666-145.066666 145.066667 64.853333 145.066667 145.066666-64.853333 145.066667-145.066667 145.066667z" fill="" p-id="1342"></path><path d="M759.466667 769.706667c1.706667 10.24 5.12 20.48 6.826666 29.013333 0 3.413333 1.706667 6.826667 1.706667 10.24 0 3.413333 1.706667 6.826667 1.706667 10.24 0 3.413333 1.706667 5.12 1.706666 6.826667v3.413333c0 3.413333 0 5.12-1.706666 5.12-1.706667 1.706667-3.413333 1.706667-5.12 1.706667h-3.413334c-1.706667 0-1.706667 0-3.413333-1.706667l-52.906667-30.72c-10.24 5.12-18.773333 10.24-25.6 15.36l-10.24 5.12c-3.413333 1.706667-6.826667 3.413333-8.533333 5.12-3.413333 1.706667-5.12 3.413333-6.826667 3.413333l-5.12 5.12c-1.706667 0-3.413333 1.706667-3.413333 0-1.706667 0-3.413333 0-3.413333-1.706666-1.706667 0-1.706667-1.706667-1.706667-3.413334v-3.413333s0-1.706667 1.706667-3.413333c0-1.706667 1.706667-5.12 1.706666-6.826667 0-3.413333 1.706667-6.826667 1.706667-10.24s1.706667-6.826667 3.413333-10.24c1.706667-8.533333 5.12-18.773333 6.826667-29.013333-8.533333-6.826667-15.36-13.653333-22.186667-18.773334-3.413333-1.706667-5.12-5.12-8.533333-6.826666-3.413333-1.706667-5.12-5.12-6.826667-6.826667l-5.12-5.12-1.706666-1.706667c-1.706667-1.706667-3.413333-3.413333-3.413334-5.12-1.706667-1.706667-1.706667-3.413333-1.706666-5.12 0-1.706667 1.706667-3.413333 1.706666-5.12 1.706667-1.706667 3.413333-1.706667 3.413334-1.706666l63.146666-5.12 23.893334-54.613334c0-1.706667 1.706667-3.413333 3.413333-5.12 1.706667-1.706667 3.413333-1.706667 6.826667-1.706666 1.706667 0 1.706667 0 3.413333 1.706666 1.706667 0 1.706667 1.706667 1.706667 1.706667l1.706666 1.706667s0 1.706667 1.706667 1.706666l22.186667 54.613334 63.146666 5.12c3.413333 0 5.12 1.706667 5.12 1.706666 1.706667 1.706667 1.706667 1.706667 1.706667 5.12 0 1.706667 0 3.413333-1.706667 5.12l-5.12 5.12-42.666666 39.253334m0 0" fill="" p-id="1343"></path></svg>