<?xml version="1.0" standalone="no"?><!DOCTYPE svg PUBLIC "-//W3C//DTD SVG 1.1//EN" "http://www.w3.org/Graphics/SVG/1.1/DTD/svg11.dtd"><svg t="1568094528621" class="icon" viewBox="0 0 1024 1024" version="1.1" xmlns="http://www.w3.org/2000/svg" p-id="34592" xmlns:xlink="http://www.w3.org/1999/xlink" width="200" height="200"><defs><style type="text/css"></style></defs><path d="M920.82087 63.443478a718.803478 718.803478 0 0 1-187.88174-1.558261A871.735652 871.735652 0 0 1 531.033043 7.346087L511.888696 0l-18.921739 7.346087a876.187826 876.187826 0 0 1-201.906087 54.093913 718.803478 718.803478 0 0 1-188.104348 2.003478L38.845217 54.984348v72.347826c3.561739 306.977391 52.98087 512 133.565218 647.568696a505.09913 505.09913 0 0 0 326.566956 245.76l12.911305 3.33913 13.133913-3.33913a504.876522 504.876522 0 0 0 326.566956-244.869566c79.693913-136.681739 129.335652-340.591304 133.565218-647.568695V55.874783zM511.888696 827.213913A315.436522 315.436522 0 1 1 827.325217 512a315.213913 315.213913 0 0 1-315.436521 315.213913z" p-id="34593"></path><path d="M704.890435 456.570435h-13.133913v41.405217h-13.801739v-151.596522a27.826087 27.826087 0 0 0-27.603479-27.603478H374.093913a27.826087 27.826087 0 0 0-27.603478 27.603478v151.596522h-13.801739v-41.405217h-13.579131a12.911304 12.911304 0 0 0-13.801739 13.801739v27.603478a12.911304 12.911304 0 0 0 13.801739 13.801739h27.38087v68.786087l-5.342609 5.565218a27.38087 27.38087 0 0 0-8.45913 19.144347v44.52174a12.911304 12.911304 0 0 0 13.801739 13.57913h13.801739v27.603478a13.133913 13.133913 0 0 0 13.801739 13.801739h28.271304a13.133913 13.133913 0 0 0 13.80174-13.801739v-27.826087h193.001739v27.603479a12.911304 12.911304 0 0 0 13.57913 13.801739h27.603478a13.133913 13.133913 0 0 0 13.801739-13.801739v-27.603479h13.80174a12.911304 12.911304 0 0 0 13.801739-13.57913v-44.521739a27.158261 27.158261 0 0 0-8.236522-19.144348l-5.565217-5.565217v-68.563479h27.603478a13.133913 13.133913 0 0 0 13.801739-13.801739v-27.603478a13.133913 13.133913 0 0 0-14.469565-13.801739z m-316.994783 179.2h-13.801739a13.801739 13.801739 0 0 1 0-27.603478h13.801739a13.801739 13.801739 0 1 1 0 27.603478z m206.803478-13.801739h-165.39826v-13.801739h165.39826z m0-41.405218h-165.39826v-13.801739h165.39826z m0-41.405217h-165.39826v-13.801739h165.39826z m-220.605217-54.984348v-96.612174a13.133913 13.133913 0 0 1 13.801739-13.801739h247.986087a13.133913 13.133913 0 0 1 13.801739 13.801739v96.612174z m275.589565 151.596522h-13.801739a13.801739 13.801739 0 0 1 0-27.603478h13.801739a13.801739 13.801739 0 1 1 0 27.603478z" p-id="34594"></path></svg>