<?xml version="1.0" standalone="no"?><!DOCTYPE svg PUBLIC "-//W3C//DTD SVG 1.1//EN" "http://www.w3.org/Graphics/SVG/1.1/DTD/svg11.dtd"><svg t="1568618687522" class="icon" viewBox="0 0 1024 1024" version="1.1" xmlns="http://www.w3.org/2000/svg" p-id="4052" xmlns:xlink="http://www.w3.org/1999/xlink" width="200" height="200"><defs><style type="text/css"></style></defs><path d="M256 384v85.333333H170.666667v426.666667h682.666666V469.333333h-85.333333v-85.333333h128a42.666667 42.666667 0 0 1 42.666667 42.666667v512a42.666667 42.666667 0 0 1-42.666667 42.666666H128a42.666667 42.666667 0 0 1-42.666667-42.666666V426.666667a42.666667 42.666667 0 0 1 42.666667-42.666667h128z m298.069333-51.712l90.474667-90.496a21.333333 21.333333 0 0 1 30.165333 0l30.186667 30.165333a21.333333 21.333333 0 0 1 0 30.186667l-135.765333 135.765333-30.186667 30.165334a42.666667 42.666667 0 0 1-60.330667 0l-165.930666-165.930667a21.333333 21.333333 0 0 1 0-30.186667l30.165333-30.165333a21.333333 21.333333 0 0 1 30.165333 0l98.026667 98.026667-1.578667-268.053334a21.354667 21.354667 0 0 1 21.397334-21.461333l40.405333 0.128a21.333333 21.333333 0 0 1 21.269333 21.205333l1.536 260.650667zM320 554.666667h384a21.333333 21.333333 0 0 1 21.333333 21.333333v42.666667a21.333333 21.333333 0 0 1-21.333333 21.333333H320a21.333333 21.333333 0 0 1-21.333333-21.333333v-42.666667a21.333333 21.333333 0 0 1 21.333333-21.333333z m0 170.666666h384a21.333333 21.333333 0 0 1 21.333333 21.333334v42.666666a21.333333 21.333333 0 0 1-21.333333 21.333334H320a21.333333 21.333333 0 0 1-21.333333-21.333334v-42.666666a21.333333 21.333333 0 0 1 21.333333-21.333334z" p-id="4053"></path></svg>