<?xml version="1.0" standalone="no"?><!DOCTYPE svg PUBLIC "-//W3C//DTD SVG 1.1//EN" "http://www.w3.org/Graphics/SVG/1.1/DTD/svg11.dtd"><svg t="1568617781087" class="icon" viewBox="0 0 1024 1024" version="1.1" xmlns="http://www.w3.org/2000/svg" p-id="3042" xmlns:xlink="http://www.w3.org/1999/xlink" width="200" height="200"><defs><style type="text/css"></style></defs><path d="M512 1024C229.218462 1024 0 794.781538 0 512S229.218462 0 512 0s512 229.218462 512 512-229.218462 512-512 512z m0-39.384615c261.021538 0 472.615385-211.593846 472.615385-472.615385S773.021538 39.384615 512 39.384615 39.384615 250.978462 39.384615 512s211.593846 472.615385 472.615385 472.615385z" p-id="3043"></path><path d="M306.609231 515.347692h410.781538v268.859077h-41.550769v-25.383384H348.16v25.403077h-41.550769V515.347692z m82.510769-305.171692l43.264 18.451692a618.338462 618.338462 0 0 1-27.411692 41.55077H717.390769v38.656c-35.584 42.870154-83.475692 80.285538-143.655384 112.206769 63.645538 21.346462 139.618462 34.323692 227.879384 38.931692a1055.232 1055.232 0 0 0-32.295384 48.462769c-99.446154-11.913846-182.803692-32.393846-250.092308-61.44-76.366769 32.689231-168.566154 58.368-276.657231 77.016616a479.980308 479.980308 0 0 0-24.221538-41.531077c95.389538-13.843692 178.451692-34.323692 249.225846-61.44-45.390769-26.348308-81.053538-57.698462-107.008-94.050462a876.347077 876.347077 0 0 1-97.220923 94.916923 411.510154 411.510154 0 0 0-31.724308-31.744c68.844308-55.374769 121.344-115.377231 157.499077-179.987692z m266.535385 98.067692h-258.756923c30.976 36.923077 71.640615 67.308308 122.03323 91.175385 54.212923-25.796923 99.800615-56.162462 136.723693-91.175385zM348.16 620.957538h143.064615v-70.971076H348.16v70.951384z m327.68-70.971076h-143.064615v70.951384h143.064615V550.006154z m-143.064615 174.217846h143.064615v-70.380308h-143.064615v70.380308z m-184.615385 0h143.064615v-70.380308H348.16v70.380308z" p-id="3044"></path></svg>