<?xml version="1.0" standalone="no"?><!DOCTYPE svg PUBLIC "-//W3C//DTD SVG 1.1//EN" "http://www.w3.org/Graphics/SVG/1.1/DTD/svg11.dtd"><svg t="1568099622878" class="icon" viewBox="0 0 1024 1024" version="1.1" xmlns="http://www.w3.org/2000/svg" p-id="65362" xmlns:xlink="http://www.w3.org/1999/xlink" width="200" height="200"><defs><style type="text/css"></style></defs><path d="M512 89.6c-236.8 0-422.4 192-422.4 422.4s192 422.4 422.4 422.4c236.8 0 422.4-192 422.4-422.4S748.8 89.6 512 89.6z m0 768C320 857.6 166.4 704 166.4 512 166.4 320 320 166.4 512 166.4S857.6 320 857.6 512c0 192-153.6 345.6-345.6 345.6z" p-id="65363"></path><path d="M512 332.8m-64 0a64 64 0 1 0 128 0 64 64 0 1 0-128 0Z" p-id="65364"></path><path d="M512 454.4c-19.2 0-38.4 19.2-38.4 38.4v243.2c0 19.2 19.2 38.4 38.4 38.4s38.4-19.2 38.4-38.4V499.2c0-25.6-19.2-44.8-38.4-44.8z" p-id="65365"></path></svg>