<?xml version="1.0" standalone="no"?><!DOCTYPE svg PUBLIC "-//W3C//DTD SVG 1.1//EN" "http://www.w3.org/Graphics/SVG/1.1/DTD/svg11.dtd"><svg t="1568094394217" class="icon" viewBox="0 0 1024 1024" version="1.1" xmlns="http://www.w3.org/2000/svg" p-id="33388" xmlns:xlink="http://www.w3.org/1999/xlink" width="200" height="200"><defs><style type="text/css"></style></defs><path d="M206.6 217.7c6.8-21.5 12.6-37.8 19-50.6 5.9-12.2 12.3-21.5 19.4-27.8 6.8-5.9 14.5-9.6 23.1-11.6 8.6-2 19-3 31.7-3.9h114.8L299.8 896.7H148.4c-40.7 0-66.9-15.6-77.7-46.1s-8.6-74.2 7.1-131.2c5.5-18.5 11.4-41.7 19-69.5 7.7-27.8 14.8-57.9 23.1-90.4 8.1-32.1 16.3-65.6 24.9-99.6 8.1-34.5 16.3-67 24.4-98.1 8.1-31.1 14.8-59.3 21.2-84.5 6.3-25.1 11.6-45 16.2-59.6z m338.9 37h-72.3l5.9-129.8h59.7l6.7 129.8z m13.5 323h-99.5l10.8-258h78.2l10.5 258z m2.2 64.6l10.8 258H445.5l10.8-258h104.9z m385.9 90.4c4.6 15.6 8.1 33.1 10.8 52 2.7 18.9 2.7 36.8 0 53.4s-8.6 30.5-18.1 41.7c-9.5 11.2-24 16.9-42.9 16.9H717.1L601.5 124h92.7c33 0 60.6 7.7 83.2 23.2s39.4 43.7 51.5 84.1c4 12.6 9 32.5 14.8 59.3l21.6 91.4c7.7 34.1 15.8 69.5 24.4 106.3 8.1 36.8 15.8 71.5 23.1 104l20.7 87c5.9 25.6 10.5 43.1 13.6 53.4z" p-id="33389"></path></svg>