<?xml version="1.0" standalone="no"?><!DOCTYPE svg PUBLIC "-//W3C//DTD SVG 1.1//EN" "http://www.w3.org/Graphics/SVG/1.1/DTD/svg11.dtd"><svg t="1568084768291" class="icon" viewBox="0 0 1024 1024" version="1.1" xmlns="http://www.w3.org/2000/svg" p-id="15748" xmlns:xlink="http://www.w3.org/1999/xlink" width="200" height="200"><defs><style type="text/css"></style></defs><path d="M21.797115 291.236681l458.016778 250.042292c4.623224 2.505717 9.669949 3.740929 14.751966 3.740929 5.046725 0 10.058159-1.235212 14.646091-3.670346l462.851752-250.042292C982.157152 285.872329 988.439089 275.249502 988.297922 263.744381c-0.176459-11.540413-6.670147-21.986782-16.904765-27.209966L513.37638 3.326304c-8.752363-4.411473-19.057564-4.446765-27.845218-0.035292L22.714701 236.463831C12.480084 241.616432 5.915812 252.098092 5.704061 263.567922 5.527602 275.073043 11.738956 285.766454 21.797115 291.236681zM499.330249 65.581011l391.59764 199.327998-396.220863 214.009381L103.109386 265.191344 499.330249 65.581011zM966.09939 463.742923l-91.546889-46.585155L808.450989 452.873053l77.147841 39.244464-396.220863 214.009381L97.780327 492.435143l82.265149-41.432555-65.925053-36.032912-96.699489 48.737954c-10.269909 5.152601-16.834181 15.598969-16.975348 27.139382-0.176459 11.46983 5.999603 22.163241 16.093054 27.633467l458.05207 250.042292c4.587932 2.505717 9.669949 3.776221 14.751966 3.776221 5.046725 0 10.058159-1.235212 14.646091-3.705637l462.851752-250.042292c10.058159-5.434935 16.340096-16.057762 16.198929-27.562884C982.862987 479.412475 976.298715 468.966107 966.09939 463.742923zM966.09939 680.25802l-86.711914-42.738351-66.101512 35.715286 72.312866 35.39766-396.220863 214.044672L97.780327 708.879657l76.477297-34.656532-65.925053-35.99762-90.911637 41.92664c-10.269909 5.152601-16.834181 15.598969-16.975348 27.139382-0.176459 11.505122 5.999603 22.163241 16.093054 27.633467l458.05207 250.042292c4.587932 2.505717 9.669949 3.776221 14.751966 3.776221 5.046725 0 10.058159-1.235212 14.646091-3.705637l462.851752-250.042292c10.058159-5.434935 16.340096-16.057762 16.198929-27.562884C982.862987 695.892281 976.298715 685.445912 966.09939 680.25802z" p-id="15749"></path></svg>