<?xml version="1.0" standalone="no"?><!DOCTYPE svg PUBLIC "-//W3C//DTD SVG 1.1//EN" "http://www.w3.org/Graphics/SVG/1.1/DTD/svg11.dtd"><svg t="1568095009222" class="icon" viewBox="0 0 1024 1024" version="1.1" xmlns="http://www.w3.org/2000/svg" p-id="38966" xmlns:xlink="http://www.w3.org/1999/xlink" width="200" height="200"><defs><style type="text/css"></style></defs><path d="M885.028571 0H88.210286A88.502857 88.502857 0 0 0 0 88.283429v847.433142A88.502857 88.502857 0 0 0 88.283429 1024h796.672a88.502857 88.502857 0 0 0 88.283428-88.283429V88.283429A88.502857 88.502857 0 0 0 884.955429 0z m44.105143 935.716571a44.251429 44.251429 0 0 1-44.178285 44.178286H88.283429a44.251429 44.251429 0 0 1-44.178286-44.178286V88.283429c0-24.283429 19.894857-44.178286 44.178286-44.178286h796.672c24.283429 0 44.178286 19.894857 44.178285 44.178286v847.433142z m-317.805714-112.566857H335.433143c-13.165714 0-22.089143 8.850286-22.089143 22.089143s8.850286 22.089143 22.089143 22.089143h275.894857c13.165714 0 22.016-8.777143 22.016-22.089143a22.089143 22.089143 0 0 0-22.016-22.089143z m209.627429-196.388571H342.089143c-13.238857 0-22.089143 8.777143-22.089143 22.089143 0 13.165714 8.777143 22.016 22.089143 22.016h478.866286c13.238857 0 22.089143-8.777143 22.089142-22.016s-8.777143-22.089143-22.089142-22.089143z m0-198.656H342.089143c-13.238857 0-22.089143 8.850286-22.089143 22.089143s8.777143 22.089143 22.089143 22.089143h478.866286c13.238857 0 22.089143-8.777143 22.089142-22.089143 0-13.165714-8.777143-22.089143-22.089142-22.089143zM209.627429 529.627429c41.984 0 77.238857-35.254857 77.238857-77.238858 0-41.910857-35.254857-77.238857-77.238857-77.238857-41.910857 0-77.238857 35.328-77.238858 77.238857a76.8 76.8 0 0 0 77.238858 77.238858z m0-110.299429c17.700571 0 33.133714 15.433143 33.133714 33.060571a33.938286 33.938286 0 0 1-33.133714 33.133715 33.938286 33.938286 0 0 1-33.060572-33.133715c0-17.627429 13.165714-33.060571 33.060572-33.060571z m41.984 172.105143l-55.222858 55.222857-28.672-28.745143a21.357714 21.357714 0 0 0-30.866285 0 21.357714 21.357714 0 0 0 0 30.939429l44.105143 44.105143c4.388571 4.388571 11.044571 6.582857 15.433142 6.582857s11.044571-2.194286 15.506286-6.582857l70.582857-70.582858a21.357714 21.357714 0 0 0 0-30.939428 21.357714 21.357714 0 0 0-30.866285 0z m0 203.044571l-55.222858 55.149715-28.672-28.672a21.357714 21.357714 0 0 0-30.866285 0 21.357714 21.357714 0 0 0 0 30.939428l44.105143 44.105143c4.388571 4.388571 11.044571 6.582857 15.433142 6.582857s11.044571-2.194286 15.506286-6.582857l70.582857-70.656a21.357714 21.357714 0 0 0 0-30.866286 21.357714 21.357714 0 0 0-30.866285 0zM843.044571 117.028571H130.194286c-13.165714 0-22.089143 8.777143-22.089143 22.089143v110.299429c0 13.312 8.850286 22.089143 22.089143 22.089143h715.044571c13.238857 0 22.089143-8.777143 22.089143-22.089143V139.044571c-2.194286-13.238857-11.044571-22.089143-24.283429-22.089142z m-22.089142 110.372572H152.283429v-66.194286h670.866285v66.194286h-2.194285z" p-id="38967"></path></svg>