<?xml version="1.0" standalone="no"?><!DOCTYPE svg PUBLIC "-//W3C//DTD SVG 1.1//EN" "http://www.w3.org/Graphics/SVG/1.1/DTD/svg11.dtd"><svg t="1568084185346" class="icon" viewBox="0 0 1024 1024" version="1.1" xmlns="http://www.w3.org/2000/svg" p-id="5597" xmlns:xlink="http://www.w3.org/1999/xlink" width="200" height="200"><defs><style type="text/css"></style></defs><path d="M315.489524 1024H127.512381V777.752381C73.48419 761.660952 36.815238 715.580952 36.571429 663.552v-218.502095c0.048762-66.121143 58.538667-119.710476 130.681904-119.759238h182.564572c72.118857 0 131.413333 53.662476 131.413333 119.759238v218.502095c-0.24381 52.053333-36.912762 98.084571-90.940952 114.249143V1024H315.489524z m598.942476-88.259048c-39.082667 0-70.753524-29.013333-70.753524-64.853333 0-35.791238 31.695238-64.804571 70.753524-64.804571 39.082667 0 70.777905 29.013333 70.777905 64.828952 0 35.791238-31.695238 64.828952-70.777905 64.828952z m-276.918857-30.866285v-5.607619a31.207619 31.207619 0 0 1-13.507048-15.36 47.713524 47.713524 0 0 1-3.974095-14.214096V547.498667h-53.272381a38.204952 38.204952 0 0 1-25.526857-11.142096 30.744381 30.744381 0 0 1-9.435429-24.064c0.560762-17.481143 15.896381-31.524571 34.962286-32.060952h53.272381V157.379048c0-6.802286 1.999238-13.531429 6.704762-19.114667a39.204571 39.204571 0 0 1 31.036952-16.042667h94.354286c10.727619 0 19.456 4.315429 26.209524 10.48381 6.777905 6.192762 10.069333 15.433143 10.069333 24.112762-0.609524 17.798095-16.213333 32.134095-35.669333 32.694857h-58.636191v290.133333h58.660572c20.187429 0 37.010286 15.408762 37.010285 33.962667 0 18.480762-16.774095 33.962667-37.010285 33.962667H694.125714v289.475047h58.026667c20.114286 0 36.961524 15.481905 36.961524 33.962667 0 18.529524-16.822857 33.962667-36.985905 33.962666h-114.590476v-0.097523z m276.918857-326.509715c-39.082667 0-70.777905-29.062095-70.753524-64.877714 0-35.84 31.719619-64.853333 70.826667-64.853333 39.107048 0.024381 70.777905 29.086476 70.777905 64.902095-0.024381 35.84-31.744 64.853333-70.851048 64.853333zM258.218667 277.74781c-83.675429-0.097524-151.478857-62.22019-151.576381-138.873905C106.73981 62.22019 174.543238 0.097524 258.194286 0c83.651048 0.097524 151.430095 62.22019 151.527619 138.873905-0.633905 77.141333-67.949714 138.873905-151.527619 138.873905z m0-209.188572c-42.422857 0-77.507048 32.085333-77.507048 70.948572 0 38.912 35.035429 70.997333 77.507048 70.997333 42.447238 0 77.482667-32.085333 77.482666-70.997333 0-38.887619-35.035429-70.948571-77.482666-70.948572z m656.213333 152.405333c-25.795048 0.731429-49.980952-11.459048-63.146667-31.792761a60.196571 60.196571 0 0 1 0-65.999239c13.165714-20.358095 37.351619-32.548571 63.146667-31.792761 25.819429-0.731429 49.980952 11.434667 63.146667 31.792761a60.196571 60.196571 0 0 1 0 65.999239c-13.165714 20.358095-37.327238 32.548571-63.146667 31.792761z" p-id="5598"></path></svg>