<?xml version="1.0" standalone="no"?><!DOCTYPE svg PUBLIC "-//W3C//DTD SVG 1.1//EN" "http://www.w3.org/Graphics/SVG/1.1/DTD/svg11.dtd"><svg t="1568099085920" class="icon" viewBox="0 0 1024 1024" version="1.1" xmlns="http://www.w3.org/2000/svg" p-id="59673" xmlns:xlink="http://www.w3.org/1999/xlink" width="200" height="200"><defs><style type="text/css"></style></defs><path d="M487.1 870.6H140.3c-13.8 0-25-11.2-25-25V140c0-13.8 11.2-25 25-25h641.9c13.8 0 25 11.2 25 25v345.1c0 13.8 11.2 25 25 25s25-11.2 25-25V140c0-41.4-33.6-75-75-75H140.3c-41.4 0-75 33.6-75 75v705.7c0 41.4 33.6 75 75 75h346.8c13.8 0 25-11.2 25-25 0-13.9-11.2-25.1-25-25.1z" p-id="59674"></path><path d="M682.9 256c0-13.8-11.2-25-25-25H261.4c-13.8 0-25 11.2-25 25s11.2 25 25 25h396.5c13.8 0 25-11.2 25-25zM261.4 391c-13.8 0-25 11.2-25 25s11.2 25 25 25h161.7c13.8 0 25-11.2 25-25s-11.2-25-25-25H261.4zM551 551H261.4c-13.8 0-25 11.2-25 25s11.2 25 25 25H551c13.8 0 25-11.2 25-25s-11.1-25-25-25zM826.4 790.6l124.9-124.3c9.8-9.7 9.8-25.6 0.1-35.4-9.7-9.8-25.6-9.8-35.4-0.1L790.9 755.4l-125-124.5c-9.8-9.7-25.6-9.7-35.4 0.1-9.7 9.8-9.7 25.6 0.1 35.4l124.9 124.3L630.6 915c-9.8 9.7-9.8 25.6-0.1 35.4s25.6 9.8 35.4 0.1L791 826l125 124.4c9.8 9.7 25.6 9.7 35.4-0.1s9.7-25.6-0.1-35.4L826.4 790.6z" p-id="59675"></path></svg>