<?xml version="1.0" standalone="no"?><!DOCTYPE svg PUBLIC "-//W3C//DTD SVG 1.1//EN" "http://www.w3.org/Graphics/SVG/1.1/DTD/svg11.dtd"><svg t="1568097570995" class="icon" viewBox="0 0 1024 1024" version="1.1" xmlns="http://www.w3.org/2000/svg" p-id="39971" xmlns:xlink="http://www.w3.org/1999/xlink" width="200" height="200"><defs><style type="text/css"></style></defs><path d="M743.515558 665.416885 292.809788 665.416885c-17.976621 0-32.546334 14.569713-32.546334 32.546334 0 17.971802 14.569713 32.541515 32.546334 32.541515l450.705769 0c17.971802 0 32.546334-14.569713 32.546334-32.541515C776.061892 679.985393 761.492179 665.416885 743.515558 665.416885L743.515558 665.416885zM743.515558 665.416885" p-id="39972"></path><path d="M743.515558 482.964179 292.809788 482.964179c-17.976621 0-32.546334 14.569713-32.546334 32.546334 0 17.971802 14.569713 32.541515 32.546334 32.541515l450.705769 0c17.971802 0 32.546334-14.569713 32.546334-32.541515C776.061892 497.533892 761.492179 482.964179 743.515558 482.964179L743.515558 482.964179zM743.515558 482.964179" p-id="39973"></path><path d="M743.515558 300.512678 292.809788 300.512678c-17.976621 0-32.546334 14.569713-32.546334 32.546334 0 17.971802 14.569713 32.540311 32.546334 32.540311l450.705769 0c17.971802 0 32.546334-14.568508 32.546334-32.540311C776.061892 315.082391 761.492179 300.512678 743.515558 300.512678L743.515558 300.512678zM743.515558 300.512678" p-id="39974"></path><path d="M512 81.92C273.840489 81.92 80.776734 274.983755 80.776734 513.143266c0 238.155896 193.063755 431.228085 431.223266 431.228085s431.223266-193.073393 431.223266-431.228085C943.223266 274.983755 750.160715 81.92 512 81.92L512 81.92zM512 901.246494c-214.338861 0-388.103228-173.759548-388.103228-388.103228 0-214.348499 173.764367-388.098409 388.103228-388.098409s388.103228 173.749911 388.103228 388.098409C900.103228 727.482127 726.338861 901.246494 512 901.246494L512 901.246494zM512 901.246494" p-id="39975"></path></svg>