<?xml version="1.0" standalone="no"?><!DOCTYPE svg PUBLIC "-//W3C//DTD SVG 1.1//EN" "http://www.w3.org/Graphics/SVG/1.1/DTD/svg11.dtd"><svg t="1568098651397" class="icon" viewBox="0 0 1024 1024" version="1.1" xmlns="http://www.w3.org/2000/svg" p-id="52517" xmlns:xlink="http://www.w3.org/1999/xlink" width="200" height="200"><defs><style type="text/css"></style></defs><path d="M970.24 473.6c-20.992 0-38.4 17.408-38.4 38.4 0 231.424-188.416 419.84-419.84 419.84s-419.84-188.416-419.84-419.84 188.416-419.84 419.84-419.84c62.976 0 123.904 13.824 180.224 40.448 18.944 9.216 41.984 1.024 51.2-17.92 9.216-18.944 1.024-41.984-17.92-51.2C658.432 31.744 586.752 15.36 512 15.36 238.08 15.36 15.36 238.08 15.36 512s222.72 496.64 496.64 496.64 496.64-222.72 496.64-496.64c0-20.992-17.408-38.4-38.4-38.4zM254.464 445.952c-14.848-14.848-39.424-14.848-54.272 0-14.848 14.848-14.848 39.424 0 54.272l240.64 240.64c7.68 7.68 17.408 11.264 27.136 11.264s19.456-3.584 27.136-11.264l491.52-491.52c14.848-14.848 14.848-39.424 0-54.272-14.848-14.848-39.424-14.848-54.272 0l-464.384 464.384-213.504-213.504z" p-id="52518"></path></svg>