<?xml version="1.0" standalone="no"?><!DOCTYPE svg PUBLIC "-//W3C//DTD SVG 1.1//EN" "http://www.w3.org/Graphics/SVG/1.1/DTD/svg11.dtd"><svg t="1568094314586" class="icon" viewBox="0 0 1024 1024" version="1.1" xmlns="http://www.w3.org/2000/svg" p-id="32734" xmlns:xlink="http://www.w3.org/1999/xlink" width="200" height="200"><defs><style type="text/css"></style></defs><path d="M1018.571337 717.824c-12.8-13.019429-217.965714-195.291429-230.765714-208.384-12.8-13.019429-25.6-13.019429-25.6-13.019429H435.257051s-51.273143 6.582857-51.273142 52.150858c0 32.548571 19.236571 58.514286 51.2 65.097142 32.109714 6.509714 89.819429 19.529143 141.092571 26.038858 19.236571 0 0 13.019429 0 13.019428L512.057051 698.294857h-217.965714s-89.673143-65.097143-153.819428-117.174857c-96.109714-71.68-134.582857 0-134.582858 0s-12.8 26.038857 0 39.058286c51.273143 45.568 237.202286 214.893714 250.002286 227.913143 12.8 13.019429 32.036571 6.582857 32.036572 6.582857h378.148571c32.109714 0 51.346286 19.456 51.346286 19.456s57.709714 52.150857 76.946285 65.097143c32.036571 26.112 44.836571 0 44.836572 0l173.056-188.781715c6.436571 0 19.236571-19.529143 6.436571-32.621714m-262.802285-605.622857c0 19.529143-6.436571 26.038857-25.6 26.038857H306.96448c-12.8 0-25.6-6.509714-25.6-26.038857v-13.019429c0-13.019429 12.8-26.038857 25.6-26.038857h429.494857c12.8 0 25.6 19.529143 25.6 32.548572l-6.363428 6.582857m-673.060572-6.582857c0 19.529143 19.236571 39.058286 38.4 39.058285 19.236571 0 38.473143-19.529143 38.473143-39.058285S140.345051 73.142857 121.10848 73.142857c-19.163429 0-38.4 19.529143-38.4 32.548572m673.060571 214.893714c0 19.529143-6.436571 26.038857-25.6 26.038857H306.96448c-12.8 0-25.6-6.509714-25.6-26.038857v-13.019429c0-19.529143 12.8-32.548571 25.6-32.548571h429.494857c12.8 0 25.6 19.529143 25.6 32.548571l-6.363428 13.019429M82.70848 314.075429c0 19.529143 19.236571 39.131429 38.4 39.131428 19.236571 0 38.473143-19.602286 38.473143-39.131428s-19.236571-39.058286-38.473143-39.058286c-19.163429 0-38.4 19.529143-38.4 39.058286" p-id="32735"></path></svg>