<?xml version="1.0" standalone="no"?><!DOCTYPE svg PUBLIC "-//W3C//DTD SVG 1.1//EN" "http://www.w3.org/Graphics/SVG/1.1/DTD/svg11.dtd"><svg t="1568094221766" class="icon" viewBox="0 0 1024 1024" version="1.1" xmlns="http://www.w3.org/2000/svg" p-id="31558" xmlns:xlink="http://www.w3.org/1999/xlink" width="200" height="200"><defs><style type="text/css"></style></defs><path d="M949.187 513.073l-141.111-168.178h-127.055v-162.429h-522.386v115.254h-55.921c-15.555 0-28.167 12.612-28.167 28.167s12.612 28.167 28.167 28.167h261.276c15.555 0 28.167-12.612 28.167-28.167s-12.612-28.167-28.167-28.167h-149.020v-58.92h409.717v466.671h-142.715c-13.086-43.097-52.718-74.75-100.021-74.75-47.324 0-86.97 31.654-100.060 74.75h-75.504v-20.947c0-15.555-12.612-28.167-28.167-28.167s-28.167 12.612-28.167 28.167v77.281h130.534c11.679 45.278 52.501 78.972 101.365 78.972 48.843 0 89.65-33.695 101.324-78.972h196.864c11.673 45.278 52.483 78.972 101.338 78.972s89.665-33.695 101.338-78.972h66.373v-248.731zM381.951 784.442c-26.86 0-48.701-21.854-48.701-48.714 0-26.833 21.841-48.674 48.701-48.674 26.833 0 48.66 21.841 48.66 48.674 0 26.86-21.827 48.714-48.66 48.714zM781.477 784.442c-26.833 0-48.674-21.854-48.674-48.714 0-26.833 21.841-48.674 48.674-48.674s48.674 21.841 48.674 48.674c-0.001 26.86-21.841 48.714-48.674 48.714zM892.853 705.469h-11.342c-13.086-43.097-52.72-74.75-100.034-74.75s-86.947 31.654-100.033 74.75h-0.41v-304.241h100.772l111.046 132.336v171.906z" p-id="31559"></path><path d="M102.714 482.127h283.047c15.555 0 28.167-12.612 28.167-28.167s-12.612-28.167-28.167-28.167h-283.047c-15.555 0-28.167 12.612-28.167 28.167s12.611 28.167 28.167 28.167z" p-id="31560"></path><path d="M457.499 584.177c0-15.555-12.612-28.167-28.167-28.167h-326.618c-15.555 0-28.167 12.612-28.167 28.167s12.612 28.167 28.167 28.167h326.619c15.555 0 28.166-12.612 28.166-28.167z" p-id="31561"></path><path d="M718.94 569.246h117.687l-51.24-80.062h-66.447z" p-id="31562"></path></svg>