<?xml version="1.0" standalone="no"?><!DOCTYPE svg PUBLIC "-//W3C//DTD SVG 1.1//EN" "http://www.w3.org/Graphics/SVG/1.1/DTD/svg11.dtd"><svg t="1568093703227" class="icon" viewBox="0 0 1024 1024" version="1.1" xmlns="http://www.w3.org/2000/svg" p-id="22892" xmlns:xlink="http://www.w3.org/1999/xlink" width="200" height="200"><defs><style type="text/css"></style></defs><path d="M905.952764 0.003413H118.044279A48.924281 48.924281 0 0 0 68.551111 47.789921v455.109594L111.786523 227.55821a273.065756 273.065756 0 0 1 206.505978-84.195275h386.274268A273.065756 273.065756 0 0 1 911.072747 227.55821l44.373186 284.443497V47.789921a48.924281 48.924281 0 0 0-49.493169-47.786508z m-398.220895 164.408341z m269.652435 46.079847a1018.307717 1018.307717 0 0 0-265.670226-22.186593 1013.756621 1013.756621 0 0 0-265.101338 22.186593C194.275136 231.540419 170.95077 227.55821 160.141917 284.44691l-50.062055 288.425705v330.523343h67.128665V967.111301a56.888699 56.888699 0 1 0 113.777398 0v-63.715343h446.576289V967.111301a56.888699 56.888699 0 1 0 113.777399 0v-63.715343h67.128665v-330.523343L864.992901 284.44691c-10.808853-52.90649-34.702107-50.062055-86.470823-71.110874zM182.32851 563.201536l30.719897-211.057074c3.982209-26.168802 13.084401-42.666524 47.217621-42.666525h506.309423c34.702107 0 43.804298 16.497723 47.786507 42.666525l30.151011 211.057074c2.844435 20.479932 0 40.390976-31.857672 40.390976H212.47952c-28.44435 0-34.702107-19.911045-31.857671-40.390976z m122.87959 203.092656a22.186593 22.186593 0 0 1-22.75548 21.617706H189.724041a21.617706 21.617706 0 0 1-22.75548-21.617706v-37.546541a22.186593 22.186593 0 0 1 22.75548-22.186593h91.021918a22.186593 22.186593 0 0 1 22.75548 22.186593z m553.527044 0a22.186593 22.186593 0 0 1-22.75548 21.617706h-93.297467a22.186593 22.186593 0 0 1-22.755479-21.617706v-37.546541a22.186593 22.186593 0 0 1 22.755479-22.186593h91.590806a22.186593 22.186593 0 0 1 22.75548 22.186593z" p-id="22893"></path></svg>