<?xml version="1.0" standalone="no"?><!DOCTYPE svg PUBLIC "-//W3C//DTD SVG 1.1//EN" "http://www.w3.org/Graphics/SVG/1.1/DTD/svg11.dtd"><svg t="1568099196220" class="icon" viewBox="0 0 1024 1024" version="1.1" xmlns="http://www.w3.org/2000/svg" p-id="61648" xmlns:xlink="http://www.w3.org/1999/xlink" width="200" height="200"><defs><style type="text/css"></style></defs><path d="M945.858 883.757l-197.3-197.498c118.419-150.14 108.425-368.577-30.03-507.152-149.269-149.39-391.272-149.39-540.534 0-149.269 149.386-149.269 391.593 0 540.983 138.743 138.863 357.6 148.622 507.643 29.332l197.21 197.41c17.4 17.411 45.611 17.411 63.011 0 17.4-17.417 17.4-45.658 0-63.075z m-708.095-224.68c-116.092-116.208-116.092-304.622 0-420.825 116.092-116.208 304.32-116.208 420.411 0 116.098 116.204 116.098 304.617 0 420.826-116.092 116.208-304.318 116.208-420.41 0z" p-id="61649"></path></svg>