<?xml version="1.0" standalone="no"?><!DOCTYPE svg PUBLIC "-//W3C//DTD SVG 1.1//EN" "http://www.w3.org/Graphics/SVG/1.1/DTD/svg11.dtd"><svg t="1568085045543" class="icon" viewBox="0 0 1024 1024" version="1.1" xmlns="http://www.w3.org/2000/svg" p-id="19217" xmlns:xlink="http://www.w3.org/1999/xlink" width="200" height="200"><defs><style type="text/css"></style></defs><path d="M983.9616 939.6736h-410.2656c-21.0944 0-38.656 18.5344-38.656 40.96 0 22.6304 17.5616 41.0624 38.656 41.0624h410.368c21.0944 0 38.0928-17.92 38.656-41.5744-0.1024-22.528-17.664-40.448-38.7584-40.448z m-32.4608-208.0256h-71.5776c-9.2672-17.92 2.56-51.712 32.4608-91.8016l0.512-1.024v-0.512c0.4096-0.4096 1.024-1.4336 1.024-1.4336 12.8-20.5824 26.2144-46.1312 26.2144-79.4624 0-74.3424-71.1168-133.2736-162.1504-133.8368h-1.024c-91.1872 0.4608-161.792 59.4944-161.792 133.8368 0 33.28 12.9024 58.4192 26.3168 78.848 0.4608 1.536 1.024 2.56 2.048 3.072l0.512 0.512c29.7984 39.936 41.728 73.3184 32.4096 91.8016h-71.5776c-40.704 0-73.0624 27.648-73.0624 61.952v98.9184c0 13.824 13.8752 25.088 30.4128 25.088h431.9232c16.9984 0 29.8496-11.264 29.8496-24.576v-99.4816c0.6656-34.304-31.744-61.952-72.4992-61.952z m5.7344 129.1264h-357.888v-67.1232c0-3.072 2.56-5.12 5.632-5.12h101.376l4.1472-3.072c52.5312-35.4304 49.4592-97.4336-8.704-174.848-11.776-18.944-18.5856-33.792-18.5856-53.3504 0-43.6224 41.1648-76.8 94.72-77.4144 54.0672 0.512 94.7712 33.792 94.7712 77.4144 0 19.968-6.656 34.816-18.5856 53.3504-58.1632 77.4144-60.7744 139.4176-8.704 174.7968l4.096 3.072h100.9664c3.072 0 5.632 2.048 5.632 5.12v67.1744h1.1264z" p-id="19218"></path><path d="M364.6976 950.0672H172.544c-26.624 0-51.8144-10.752-69.7856-28.672a101.0688 101.0688 0 0 1-28.8256-69.9392V172.032c0-26.6752 10.752-51.8656 28.672-69.7856 19.0464-18.9952 43.7248-28.7232 69.8368-28.7232h679.5776c26.624 0 51.8144 10.752 69.7856 28.672 18.9952 18.9952 28.7232 43.7248 28.7232 69.8368l-1.024 243.9168c0 20.0192 16.4864 36.5056 36.5056 36.5056 20.0192 0 36.5056-15.872 36.5056-35.9424L1024 172.544a172.544 172.544 0 0 0-50.7904-121.7536A172.1344 172.1344 0 0 0 851.456 0H172.544C126.7712 0 83.2 18.5344 50.7904 50.7904A171.3152 171.3152 0 0 0 0 172.544v678.912c0 45.7728 18.5344 89.344 50.7904 121.7536A172.1344 172.1344 0 0 0 172.544 1024h192.6144a36.6592 36.6592 0 0 0 36.4544-36.5056c-0.512-20.48-16.4352-37.376-36.9152-37.376z" p-id="19219"></path><path d="M800.768 317.2352a36.6592 36.6592 0 0 0 36.608-36.4544 36.6592 36.6592 0 0 0-36.5568-36.4032H213.8624a36.6592 36.6592 0 0 0-36.608 36.4032c0 19.968 16.5376 36.4544 36.608 36.4544H800.768zM434.3296 535.552c12.8 0 25.2416-7.168 31.8976-18.432 6.656-11.3664 6.656-25.1904 0-36.4544a37.5808 37.5808 0 0 0-31.8976-18.5344H213.8624a36.6592 36.6592 0 0 0-36.608 36.4544c0 19.968 16.5376 36.4032 36.608 36.4032 0 0.5632 220.416 0.5632 220.416 0.5632z m-219.8528 145.6128a36.6592 36.6592 0 0 0-36.5568 36.4544c0 19.968 16.4864 36.4032 36.5568 36.4032h146.2272c12.8 0 25.2416-7.168 31.8976-18.4832 6.656-11.264 6.656-25.088 0-36.4544a37.5808 37.5808 0 0 0-31.8976-18.432H214.4256v0.512z" p-id="19220"></path></svg>