<?xml version="1.0" standalone="no"?><!DOCTYPE svg PUBLIC "-//W3C//DTD SVG 1.1//EN" "http://www.w3.org/Graphics/SVG/1.1/DTD/svg11.dtd"><svg t="1568623465829" class="icon" viewBox="0 0 1024 1024" version="1.1" xmlns="http://www.w3.org/2000/svg" p-id="4190" xmlns:xlink="http://www.w3.org/1999/xlink" width="200" height="200"><defs><style type="text/css"></style></defs><path d="M352 672h320c17.7 0 32-14.3 32-32s-14.3-32-32-32H352c-17.7 0-32 14.3-32 32s14.3 32 32 32zM736 768H288c-17.7 0-32 14.3-32 32s14.3 32 32 32h448c17.7 0 32-14.3 32-32s-14.3-32-32-32z" fill="" p-id="4191"></path><path d="M896 0H128C92.7 0 64 28.7 64 64v896c0 35.3 28.7 64 64 64h768c35.3 0 64-28.7 64-64V64c0-35.3-28.7-64-64-64z m0 960H128V64h768v896z" fill="" p-id="4192"></path><path d="M393.3 525.2L512 462.8l118.7 62.4L608 393.1l96-93.6-132.7-19.3L512 160l-59.3 120.2L320 299.5l96 93.6z" fill="" p-id="4193"></path></svg>