<?xml version="1.0" standalone="no"?><!DOCTYPE svg PUBLIC "-//W3C//DTD SVG 1.1//EN" "http://www.w3.org/Graphics/SVG/1.1/DTD/svg11.dtd"><svg t="1568098677478" class="icon" viewBox="0 0 1024 1024" version="1.1" xmlns="http://www.w3.org/2000/svg" p-id="53263" xmlns:xlink="http://www.w3.org/1999/xlink" width="200" height="200"><defs><style type="text/css"></style></defs><path d="M717.1968 306.2016a36.0064 36.0064 0 0 0-50.8928 0.1024L512 461.0048 357.696 306.304a36.0064 36.0064 0 0 0-50.9952 50.7904L461.184 512l-154.496 154.9056a36.0064 36.0064 0 0 0 50.9952 50.7904L512 562.9952l154.304 154.8032a35.7248 35.7248 0 0 0 25.4976 10.5984 36.0064 36.0064 0 0 0 25.4976-61.4016L562.816 512 717.184 357.0944a35.9168 35.9168 0 0 0 0-50.8928zM512 0C229.1968 0 0 229.1968 0 512s229.1968 512 512 512 512-229.1968 512-512S794.8032 0 512 0z m311.104 823.104a437.7088 437.7088 0 0 1-139.904 94.2976A435.776 435.776 0 0 1 512 952c-59.392 0-116.992-11.5968-171.2-34.496a440.448 440.448 0 0 1-139.904-94.3104 437.7088 437.7088 0 0 1-94.2976-139.904A436.608 436.608 0 0 1 72 512c0-59.392 11.5968-116.992 34.496-171.2a440.448 440.448 0 0 1 94.2976-139.904 437.7088 437.7088 0 0 1 139.904-94.2976A436.608 436.608 0 0 1 512 72c59.392 0 116.992 11.5968 171.2 34.496a440.448 440.448 0 0 1 139.904 94.2976 437.7088 437.7088 0 0 1 94.2976 139.904A436.608 436.608 0 0 1 952 512c0 59.392-11.5968 116.992-34.496 171.2a438.0032 438.0032 0 0 1-94.4 139.904z" p-id="53264"></path></svg>