<?xml version="1.0" standalone="no"?><!DOCTYPE svg PUBLIC "-//W3C//DTD SVG 1.1//EN" "http://www.w3.org/Graphics/SVG/1.1/DTD/svg11.dtd"><svg t="1568857038152" class="icon" viewBox="0 0 1024 1024" version="1.1" xmlns="http://www.w3.org/2000/svg" p-id="2249" xmlns:xlink="http://www.w3.org/1999/xlink" width="200" height="200"><defs><style type="text/css"></style></defs><path d="M512 250.226h188.509v37.833h-188.509z" p-id="2250"></path><path d="M783.854 75.2h-355.244c-26.051 0-59.52 13.876-77.934 32.291l-135.054 135.011c-18.414 18.414-32.247 51.927-32.247 77.934v570.72c0 31.287 25.44 56.727 56.727 56.727h83.389v-37.833h-83.389c-0.013 0-0.028 0-0.044 0-10.435 0-18.894-8.459-18.894-18.894 0 0 0 0 0 0v-570.72c0-5.498 1.353-12.174 3.447-18.894h128.334c31.287 0 56.727-25.44 56.727-56.771v-128.334c6.188-2.132 13.32-3.387 20.738-3.441l353.487 0.038c10.429 0 18.938 8.466 18.938 18.894v759.229c0 0 0 0 0 0 0 10.435-8.459 18.894-18.894 18.894-0.015 0-0.031 0-0.046 0h-83.343v37.833h83.346c31.331 0 56.771-25.44 56.771-56.727v-759.229c-0.074-31.33-25.477-56.703-56.813-56.727zM371.884 244.771c0 0 0 0 0 0 0 10.46-8.479 18.938-18.938 18.938 0 0 0 0 0 0h-105.033l123.971-123.927v104.989z" p-id="2251"></path><path d="M323.491 384.887h377.062v37.833h-377.062zM323.491 519.549h377.062v37.833h-377.062zM492.364 688.466v260.334h39.273v-260.334l83.433 83.476 27.796-27.796-130.866-130.822-130.822 130.822 27.753 27.796z" p-id="2252"></path></svg>