<?xml version="1.0" standalone="no"?><!DOCTYPE svg PUBLIC "-//W3C//DTD SVG 1.1//EN" "http://www.w3.org/Graphics/SVG/1.1/DTD/svg11.dtd"><svg t="1568095068338" class="icon" viewBox="0 0 1024 1024" version="1.1" xmlns="http://www.w3.org/2000/svg" p-id="39234" xmlns:xlink="http://www.w3.org/1999/xlink" width="200" height="200"><defs><style type="text/css"></style></defs><path d="M768.01536 616.96H256.01536a42.666667 42.666667 0 0 1 0-85.333333h512a42.666667 42.666667 0 0 1 0 85.333333zM768.01536 820.053333H256.01536a42.666667 42.666667 0 0 1-42.666667-42.666666 42.666667 42.666667 0 0 1 42.666667-42.666667h512a42.666667 42.666667 0 0 1 42.666667 42.666667 42.666667 42.666667 0 0 1-42.666667 42.666666zM85.348693 327.68h853.333334v85.333333H85.348693z" fill="" p-id="39235"></path><path d="M810.682027 1024h-597.333334A213.333333 213.333333 0 0 1 0.01536 814.08v-512A214.186667 214.186667 0 0 1 213.348693 85.333333h99.84V43.52a42.666667 42.666667 0 0 1 42.666667-42.666667 42.666667 42.666667 0 0 1 42.666667 42.666667V85.333333h227.84V43.52a42.666667 42.666667 0 0 1 42.666666-42.666667 42.666667 42.666667 0 0 1 42.666667 42.666667V85.333333H810.682027A214.186667 214.186667 0 0 1 1024.01536 299.52v512A213.333333 213.333333 0 0 1 810.682027 1024z m-597.333334-853.333333A128 128 0 0 0 85.348693 299.52v512A128 128 0 0 0 213.348693 938.666667h597.333334A128 128 0 0 0 938.682027 814.08v-512A128 128 0 0 0 810.682027 170.666667H711.69536v52.906666a42.666667 42.666667 0 0 1-42.666667 42.666667 42.666667 42.666667 0 0 1-42.666666-42.666667V170.666667H398.522027v52.906666a42.666667 42.666667 0 0 1-42.666667 42.666667 42.666667 42.666667 0 0 1-42.666667-42.666667V170.666667z" fill="" p-id="39236"></path></svg>