<?xml version="1.0" standalone="no"?><!DOCTYPE svg PUBLIC "-//W3C//DTD SVG 1.1//EN" "http://www.w3.org/Graphics/SVG/1.1/DTD/svg11.dtd"><svg t="1568084852298" class="icon" viewBox="0 0 1024 1024" version="1.1" xmlns="http://www.w3.org/2000/svg" p-id="17730" xmlns:xlink="http://www.w3.org/1999/xlink" width="200" height="200"><defs><style type="text/css"></style></defs><path d="M911.375 284.891c-16.875 0-30.234 13.359-30.234 30.234v472.5h-288.984c-30.234 0-59.766 12.656-80.156 35.859-20.391-22.5-49.219-35.156-80.156-35.859h-289.688v-472.5c-0.703-16.875-14.766-29.531-30.938-28.828-15.469 0.703-28.125 13.359-28.828 28.828v483.047c0 28.125 22.5 51.328 49.922 51.328h299.531c21.094 0 39.375 14.063 46.406 33.047 4.219 11.25 14.766 18.281 26.719 18.281h12.656c11.953 0 22.5-7.031 26.719-18.281 7.031-19.688 25.313-33.047 46.406-33.047h300.938c27.422 0 49.922-23.203 49.922-51.328v-483.047c0-16.875-13.359-30.234-30.234-30.234z" p-id="17731"></path><path d="M786.922 123.172h-194.766c-31.641 0-59.766 12.656-80.156 33.047-21.094-21.094-49.922-33.047-80.156-33.047h-194.766c-22.5 0-40.781 18.281-40.781 40.781v547.031h235.547c22.5 0 42.188 13.359 47.813 31.641l2.109 21.797h59.766l2.109-21.797c5.625-18.984 25.313-31.641 47.813-31.641h235.547v-547.031c0.703-22.5-17.578-40.781-40.078-40.781zM529.578 597.781c0 11.953-9.141 21.094-21.094 21.094s-21.094-9.141-21.094-21.094v-323.438c0-11.953 9.141-21.094 21.094-21.094s21.094 9.141 21.094 21.094v323.438z" p-id="17732"></path></svg>