<?xml version="1.0" standalone="no"?><!DOCTYPE svg PUBLIC "-//W3C//DTD SVG 1.1//EN" "http://www.w3.org/Graphics/SVG/1.1/DTD/svg11.dtd"><svg t="1568094412376" class="icon" viewBox="0 0 1316 1024" version="1.1" xmlns="http://www.w3.org/2000/svg" p-id="33514" xmlns:xlink="http://www.w3.org/1999/xlink" width="257.03125" height="200"><defs><style type="text/css"></style></defs><path d="M1086.660612 0.031346c-126.951216 0-229.870514 102.919298-229.870514 229.870514s102.919298 229.870514 229.870514 229.870514 229.870514-102.919298 229.870515-229.870514C1318.516372 104.93589 1218.794363 2.016591 1093.828393 0.031346A204.898217 204.898217 0 0 0 1086.660612 0.031346zM35.065702 533.853372l102.396865-215.242391c20.897319-25.076783 35.065702-45.430773 68.710387-45.430772L376.15175 271.696499V167.209902a39.433242 39.433242 0 0 1 41.794639-41.794639l383.110558 0.31346a304.43215 304.43215 0 0 0-15.087864 94.518576c1.379223 171.065457 141.18229 308.611614 312.22685 307.23239a309.635583 309.635583 0 0 0 92.679612-14.983378v340.37554A42.48425 42.48425 0 0 1 1149.352571 898.616083h-104.486598c0-58.408008-63.653235-146.281236-146.281236-146.281236s-167.178556 60.602226-167.178556 146.281236H417.946389a156.374642 156.374642 0 0 0-146.281236-146.281236c-91.509362 0-167.178556 69.77615-167.178556 146.281236l-58.679673-0.31346A45.68154 45.68154 0 0 1 0 852.871851V625.634399c0-35.567238 35.065702-91.781027 35.065702-91.781027zM355.546993 606.053611V354.972317h-139.865759c-7.209575 0.417946-13.771334 4.263053-17.679132 10.323276l-96.691897 203.623481A158.318092 158.318092 0 0 0 83.463894 606.053611h272.083099z m532.714468 188.075875a114.935257 114.935257 0 1 1 0 229.870514 114.935257 114.935257 0 1 1 0-229.870514z m-626.919584 0a114.935257 114.935257 0 1 1 0 229.870514 114.935257 114.935257 0 1 1 0-229.870514h0.041795-0.041795zM1086.660612 104.517943a20.897319 20.897319 0 0 1 20.89732 20.89732v146.281236a20.897319 20.897319 0 0 1-41.794639 0V125.415263a20.897319 20.897319 0 0 1 20.897319-20.89732z m0 208.973195a20.897319 20.897319 0 1 1 0 41.794639 20.897319 20.897319 0 0 1 0-41.794639z" p-id="33515"></path></svg>