<?xml version="1.0" standalone="no"?><!DOCTYPE svg PUBLIC "-//W3C//DTD SVG 1.1//EN" "http://www.w3.org/Graphics/SVG/1.1/DTD/svg11.dtd"><svg t="1568099244607" class="icon" viewBox="0 0 1024 1024" version="1.1" xmlns="http://www.w3.org/2000/svg" p-id="62383" xmlns:xlink="http://www.w3.org/1999/xlink" width="200" height="200"><defs><style type="text/css"></style></defs><path d="M512 950.857143A438.857143 438.857143 0 1 0 512 73.142857a438.857143 438.857143 0 0 0 0 877.714286z m0 73.142857A512 512 0 1 1 512 0a512 512 0 0 1 0 1024z m43.885714-555.885714h277.942857a43.885714 43.885714 0 0 1 0 87.771428H555.885714v277.942857a43.885714 43.885714 0 0 1-87.771428 0V555.885714H190.171429a43.885714 43.885714 0 0 1 0-87.771428h277.942857V190.171429a43.885714 43.885714 0 0 1 87.771428 0v277.942857z" p-id="62384" fill="#2c2c2c"></path></svg>