<?xml version="1.0" standalone="no"?><!DOCTYPE svg PUBLIC "-//W3C//DTD SVG 1.1//EN" "http://www.w3.org/Graphics/SVG/1.1/DTD/svg11.dtd"><svg t="1568094684068" class="icon" viewBox="0 0 1024 1024" version="1.1" xmlns="http://www.w3.org/2000/svg" p-id="35631" xmlns:xlink="http://www.w3.org/1999/xlink" width="200" height="200"><defs><style type="text/css"></style></defs><path d="M611.185848 0H412.424177a27.675676 27.675676 0 0 0-27.675676 27.675676v27.675675a27.675676 27.675676 0 0 0 27.675676 27.675676h198.761671a27.675676 27.675676 0 0 0 27.675675-27.675676V27.675676a27.675676 27.675676 0 0 0-27.675675-27.675676zM759.238133 235.243243a27.675676 27.675676 0 0 0-27.675676-27.675675h-435.262899a27.675676 27.675676 0 0 0 0 55.351351h435.262899a27.675676 27.675676 0 0 0 27.675676-27.675676zM698.85484 393.120393a27.675676 27.675676 0 0 0-27.675675-27.675676h-374.879607a27.675676 27.675676 0 0 0 0 55.351352h374.879607a27.675676 27.675676 0 0 0 27.675675-27.675676zM296.299558 523.321867a27.675676 27.675676 0 0 0 0 55.351352h198.761671a27.675676 27.675676 0 1 0 0-55.351352z" p-id="35632"></path><path d="M874.104767 754.791155v172.582997A41.274496 41.274496 0 0 1 832.83027 968.648649H190.779754A41.274496 41.274496 0 0 1 149.505258 927.374152V151.977199A41.274496 41.274496 0 0 1 190.779754 110.702703h642.050516A41.274496 41.274496 0 0 1 874.104767 151.977199V471.744472a27.675676 27.675676 0 0 0 27.675675 27.675675 27.675676 27.675676 0 0 0 27.675676-27.675675V151.977199A96.625848 96.625848 0 0 0 832.83027 55.351351H190.779754A96.625848 96.625848 0 0 0 94.153907 151.977199v775.396953A96.625848 96.625848 0 0 0 190.779754 1024h642.050516A96.625848 96.625848 0 0 0 929.456118 927.374152V754.791155a27.675676 27.675676 0 0 0-27.675676-27.675676 27.675676 27.675676 0 0 0-27.675675 27.675676z" p-id="35633"></path><path d="M902.170418 635.282555m-27.675676 0a27.675676 27.675676 0 1 0 55.351351 0 27.675676 27.675676 0 1 0-55.351351 0Z" p-id="35634"></path><path d="M669.933759 570.257297c-100.462703 0-182.206585 81.769042-182.206585 182.219165S569.471057 934.683047 669.933759 934.683047s182.219165-81.769042 182.219165-182.206585-81.743882-182.219165-182.219165-182.219165z m108.564128 90.914595l-0.540934 1.094447-0.163538 0.163538v0.628993l-55.577788 85.31656H744.532285c15.095823 0 24.153317 7.900147 24.153317 21.134152v0.540934l-0.075479 0.528354c-0.89317 6.151548-5.031941 16.718624-23.348207 18.517543H699.244816v12.076658h45.287469c15.095823 0 24.153317 7.900147 24.153317 21.134153v0.540933l-0.075479 0.528354c-0.89317 6.151548-5.031941 16.718624-23.348207 18.517543H699.244816v52.835381c0 14.177494-9.032334 22.643735-24.153317 22.643735s-24.153317-8.466241-24.153317-22.643735v-52.835381H604.908501c-18.303686-1.798919-22.480197-12.391155-23.348206-18.542703l-0.062899-0.515774v-0.528353c0-13.234005 9.019754-21.134152 24.153317-21.134153h45.287469v-12.076658H604.908501c-18.303686-1.798919-22.480197-12.391155-23.348206-18.542703l-0.062899-0.515774v-0.528354c0-13.234005 9.019754-21.134152 24.153317-21.134152h22.304078l-55.514889-85.31656v-0.641573l-0.150959-0.150958-0.553513-1.056708a64.295627 64.295627 0 0 1-5.12-13.686879l-0.327076-1.346044 0.163538-1.383784c1.421523-11.535725 8.579459-18.693661 20.127764-20.127764l0.943489-0.0629a27.084423 27.084423 0 0 1 24.518133 14.127175l63.037641 94.537592 63.025061-94.537592a27.034103 27.034103 0 0 1 24.530713-14.127175l0.943489 0.0629c11.523145 1.446683 18.668501 8.592039 20.127764 20.127764l0.062899 0.943489c0.01258 3.38398-1.497002 7.874988-5.270958 15.435479z" p-id="35635"></path></svg>