<?xml version="1.0" standalone="no"?><!DOCTYPE svg PUBLIC "-//W3C//DTD SVG 1.1//EN" "http://www.w3.org/Graphics/SVG/1.1/DTD/svg11.dtd"><svg t="1568094826862" class="icon" viewBox="0 0 1092 1024" version="1.1" xmlns="http://www.w3.org/2000/svg" p-id="37269" xmlns:xlink="http://www.w3.org/1999/xlink" width="213.28125" height="200"><defs><style type="text/css"></style></defs><path d="M977.3056 0.341333H115.0976C52.0192 0.341333 0.8192 48.128 0.8192 106.973867V912.725333c0 58.709333 51.2 106.632533 114.210133 106.632534h862.208c62.941867 0 114.0736-47.786667 114.0736-106.632534V106.973867c0-58.7776-51.131733-106.632533-114.0736-106.632534z m42.734933 912.452267c0 22.050133-19.182933 39.936-42.734933 39.936H115.0976c-23.552 0-42.8032-17.885867-42.8032-39.936V106.973867c0-22.050133 19.2512-39.936 42.8032-39.936h862.208c23.552 0 42.734933 17.885867 42.734933 39.936V912.725333z" p-id="37270"></path><path d="M899.072 767.658667H193.399467a35.703467 35.703467 0 0 0 0 71.406933h705.536a35.703467 35.703467 0 1 0 0-71.406933z m34.065067-549.956267a20.002133 20.002133 0 0 0-1.6384-5.461333 20.343467 20.343467 0 0 0-3.2768-5.3248c-2.184533-3.549867-3.2768-4.9152-3.618134-4.9152l-1.570133-1.6384a23.825067 23.825067 0 0 0-4.9152-3.413334c-1.365333-0.955733-3.4816-2.389333-6.485333-3.549866-2.525867-1.024-4.846933-1.365333-6.5536-1.570134a23.278933 23.278933 0 0 0-6.144-0.887466h-211.694934a35.703467 35.703467 0 0 0 0 71.406933h131.549867l-239.684267 266.24-211.626666-195.925333-200.635734 222.8224a35.703467 35.703467 0 0 0 53.111467 47.786666L372.053333 434.312533l211.626667 195.925334 279.552-310.545067v142.1312a35.703467 35.703467 0 0 0 71.406933 0l-0.136533-236.066133c0-3.003733-0.750933-5.461333-1.365333-8.055467z" p-id="37271"></path></svg>