<?xml version="1.0" standalone="no"?><!DOCTYPE svg PUBLIC "-//W3C//DTD SVG 1.1//EN" "http://www.w3.org/Graphics/SVG/1.1/DTD/svg11.dtd"><svg t="1568084577548" class="icon" viewBox="0 0 1107 1024" version="1.1" xmlns="http://www.w3.org/2000/svg" p-id="10208" xmlns:xlink="http://www.w3.org/1999/xlink" width="216.2109375" height="200"><defs><style type="text/css"></style></defs><path d="M1005.347 809.458c-69.217-53.165-268.648-141.506-268.648-141.506l-129.467 235.05-19.207-55.988 35.425-70.684-70.905-70.683-70.96 70.683 35.507 70.684-22.887 57.316-125.87-236.378s-199.403 88.369-268.62 141.506C30.526 862.623 0 1024 0 1024h1107.027s-20.286-151.967-101.68-214.542zM559.132 647.75c162.511-0.249 270.862-213.711 270.862-328.593S829.523 0 559.132 0C288.768 0 288.27 204.302 288.27 319.184s108.35 328.814 270.862 328.565z" p-id="10209"></path></svg>