<?xml version="1.0" standalone="no"?><!DOCTYPE svg PUBLIC "-//W3C//DTD SVG 1.1//EN" "http://www.w3.org/Graphics/SVG/1.1/DTD/svg11.dtd"><svg t="1568093968396" class="icon" viewBox="0 0 1024 1024" version="1.1" xmlns="http://www.w3.org/2000/svg" p-id="27599" xmlns:xlink="http://www.w3.org/1999/xlink" width="200" height="200"><defs><style type="text/css"></style></defs><path d="M509.954046 450.10989c115.596404 0 209.71029-100.763237 209.71029-224.543456S625.55045 1.022977 509.954046 1.022977s-209.71029 100.763237-209.71029 224.543457c0 124.035964 94.113886 224.543457 209.71029 224.543456z m-24.295704 327.608392l193.086913-274.413587c-41.942058-10.741259-99.996004-21.994006-168.023976-21.994006-4.603397 0-123.268731-9.462537-246.281719 47.056943 0 0-15.6004 1.534466-46.28971 48.847153-46.801199 76.211788-118.921079 187.460539-140.147852 224.543457-14.833167 24.295704-52.427572 73.142857-27.876124 124.547452 26.853147 51.148851 49.614386 89.766234 58.565435 96.415585h115.852148c-2.301698-87.72028 79.280719-231.704296 261.114885-245.002997z m456.75924 25.574425c-35.548452-61.122877-114.829171-185.414585-121.222777-196.411588-8.43956-14.577423-34.26973-70.585415-83.116883-85.674326-5.114885-1.534466-12.01998-3.836164-19.948052-6.393606L532.971029 777.462537c176.719281 10.741259 264.183816 148.587413 264.183816 245.258742l105.878122 0.255744s11.252747 1.022977 66.493507-99.228771c20.715285-52.683317-1.534466-75.7003-27.108892-120.455545z m0 0" p-id="27600"></path><path d="M509.698302 842.677323c-121.99001 0-220.963037 79.024975-220.963037 180.043956h441.670329c0.255744-100.763237-98.717283-180.043956-220.707292-180.043956z m0 0" p-id="27601"></path></svg>