<?xml version="1.0" standalone="no"?><!DOCTYPE svg PUBLIC "-//W3C//DTD SVG 1.1//EN" "http://www.w3.org/Graphics/SVG/1.1/DTD/svg11.dtd"><svg t="1568619013709" class="icon" viewBox="0 0 1027 1024" version="1.1" xmlns="http://www.w3.org/2000/svg" p-id="4644" xmlns:xlink="http://www.w3.org/1999/xlink" width="200.5859375" height="200"><defs><style type="text/css"></style></defs><path d="M24 952V1024h892.8l-72-72zM512 72c121.6 0 208 76.8 208 185.6 0 62.4-28.8 107.2-59.2 152-17.6 28.8-36.8 56-48 89.6l60.8 60.8c1.6-38.4 22.4-70.4 48-110.4 33.6-49.6 70.4-107.2 70.4-192C790.4 108.8 673.6 0 512 0c-116.8 0-211.2 57.6-252.8 144l54.4 54.4c24-76.8 99.2-126.4 198.4-126.4zM884.8 688c16 0 28.8 12.8 28.8 28.8V800l72 72v-155.2c0-56-44.8-100.8-100.8-100.8h-155.2l72 72h83.2zM110.4 811.2v-94.4c0-16 12.8-28.8 28.8-28.8H368l11.2-12.8c25.6-30.4 40-64 43.2-97.6 1.6-17.6 0-35.2-3.2-51.2L254.4 361.6c12.8 32 32 60.8 48 86.4 28.8 43.2 51.2 78.4 48 123.2-1.6 14.4-6.4 28.8-17.6 44.8H139.2c-56 0-100.8 44.8-100.8 100.8v164.8h736l-72-72h-592zM936 881.6L864 811.2 740.8 688l-139.2-139.2-296-297.6-64-62.4L60.8 8 11.2 57.6l224 224 129.6 129.6 398.4 400 72 70.4 70.4 70.4L976 1024l24-22.4 27.2-28.8z" p-id="4645"></path></svg>