<?xml version="1.0" standalone="no"?><!DOCTYPE svg PUBLIC "-//W3C//DTD SVG 1.1//EN" "http://www.w3.org/Graphics/SVG/1.1/DTD/svg11.dtd"><svg t="1568094611901" class="icon" viewBox="0 0 1024 1024" version="1.1" xmlns="http://www.w3.org/2000/svg" p-id="35138" xmlns:xlink="http://www.w3.org/1999/xlink" width="200" height="200"><defs><style type="text/css"></style></defs><path d="M864.469083 275.229628l10.552131-31.545578a92.802116 92.802116 0 0 0-58.596958-116.972284l-367.32991-121.897433a90.992124 90.992124 0 0 0-70.515818 5.159093A92.851368 92.851368 0 0 0 332.306755 63.460542a30.425107 30.425107 0 0 0-1.379042 11.438658l-3.632297-0.886526a92.186473 92.186473 0 0 0-111.640811 67.720796L181.018496 283.516191A126.108435 126.108435 0 0 0 111.906346 395.883461v485.91518c0 69.247592 56.195948 125.800613 125.591294 125.800613h591.596561c69.124463 0 125.591294-56.442205 125.591295-125.800613V395.883461a126.034558 126.034558 0 0 0-90.191788-120.666146zM388.416512 82.102231A33.072374 33.072374 0 0 1 430.440345 60.948716L797.733316 182.993904a33.491012 33.491012 0 0 1 19.331209 16.733193 32.629111 32.629111 0 0 1 1.760741 25.376829L803.889752 270.09516h-31.471701a92.469669 92.469669 0 0 0-69.247592-104.056081L385.510675 88.258667a36.236782 36.236782 0 0 0 2.893525-6.156436z m-115.310046 73.729477a32.764552 32.764552 0 0 1 15.181771-20.624061 34.217471 34.217471 0 0 1 25.216762-3.853928L689.380043 223.441688a32.604485 32.604485 0 0 1 20.574809 15.21871 33.44176 33.44176 0 0 1 3.890867 25.241388 27.162196 27.162196 0 0 0-0.861901 6.291877h-467.889136l27.987158-114.361955z m622.464931 726.127001a66.661889 66.661889 0 0 1-66.489509 66.600324H237.49764a66.674202 66.674202 0 0 1-66.489509-66.62495V395.895773a66.661889 66.661889 0 0 1 66.489509-66.62495h591.596561a66.661889 66.661889 0 0 1 66.489509 66.62495v486.062936z m0 0" p-id="35139"></path><path d="M610.44222 487.478915l-62.63558 121.897433c-5.996369 11.943486-10.884579 21.719906-14.40606 29.550893-3.521481-8.040305-7.794048-17.102579-13.42103-27.39614l-66.120123-124.039873h-54.558336l90.942873 167.762881h-73.507846v43.723009H509.612111v25.142884h-92.875993v41.469753H509.612111v76.659941h49.165298v-76.659941h92.34654V724.120002h-92.34654v-25.142884h92.34654v-43.735322h-73.56941l90.598112-167.762881h-57.710431" p-id="35140"></path></svg>