<?xml version="1.0" standalone="no"?><!DOCTYPE svg PUBLIC "-//W3C//DTD SVG 1.1//EN" "http://www.w3.org/Graphics/SVG/1.1/DTD/svg11.dtd"><svg t="1568099816540" class="icon" viewBox="0 0 1026 1024" version="1.1" xmlns="http://www.w3.org/2000/svg" p-id="67059" xmlns:xlink="http://www.w3.org/1999/xlink" width="200.390625" height="200"><defs><style type="text/css"></style></defs><path d="M972.834976 109.125403v326.37689c0 13.890505 11.292281 25.182785 25.282717 25.182786 13.890505 0 25.282717-11.292281 25.282717-25.182786v-341.76637c0-51.165024-41.771445-92.936469-92.936469-92.93647H363.05182c-13.890505 0-25.182785 11.292281-25.182785 25.182786 0 13.890505 11.292281 25.182785 25.182785 25.182785h551.822777c31.878208 0 57.960379 26.08217 57.960379 57.960379z" p-id="67060"></path><path d="M312.68625 971.735728H106.727042c-31.878208 0-57.960379-26.08217-57.960379-57.960379V239.136528c0-31.878208 26.08217-57.960379 57.960379-57.960379h626.57168c31.878208 0 57.960379 26.08217 57.960378 57.960379v73.549722c0 13.890505 11.292281 25.182785 25.282717 25.182785 13.890505 0 25.282717-11.292281 25.282717-25.182785v-88.939202c0-51.065092-41.771445-92.936469-92.936469-92.936469h-653.553235c-51.165024 0-92.936469 41.871377-92.93647 92.936469v705.517712c0 51.165024 41.771445 92.936469 92.93647 92.93647H312.786181c13.890505 0 25.182785-11.292281 25.182786-25.182786-0.099932-13.990436-11.392212-25.282717-25.282717-25.282716z" p-id="67061"></path><path d="M618.077486 1024c-33.676979 0-61.058261-27.381282-61.058261-61.058261V649.256173h400.726066v313.685566c0 33.676979-27.381282 61.058261-61.058261 61.058261H618.077486z m-16.688592-61.058261c0 9.193715 7.494877 16.688592 16.688592 16.688592h278.609544c9.193715 0 16.688592-7.494877 16.688592-16.688592V693.625842H601.388894v269.315897z" p-id="67062"></path><path d="M822.237923 939.557724c-12.091734 0-21.984971-9.893237-21.984971-22.084903V755.783351c0-12.191666 9.893237-22.084903 21.984971-22.084903s21.984971 9.893237 21.984972 22.084903V917.37289c0 12.191666-9.793305 22.184835-21.984972 22.184834z m-129.71133 0c-12.091734 0-21.984971-9.893237-21.984971-22.084903V755.783351c0-12.191666 9.893237-22.084903 21.984971-22.084903s21.984971 9.893237 21.984971 22.084903V917.37289c0 12.191666-9.893237 22.184835-21.984971 22.184834zM549.724212 693.226115c-33.676979 0-61.158193-27.481214-61.158193-61.258124v-19.486679c0-33.77691 27.481214-61.158193 61.158193-61.158193h415.316092c33.676979 0 61.158193 27.481214 61.158193 61.158193v19.486679c0 33.77691-27.481214 61.258124-61.158193 61.258124H549.724212z m0-97.433395c-9.193715 0-16.688592 7.494877-16.688592 16.688592v19.486679c0 9.193715 7.494877 16.688592 16.688592 16.688591h415.316092c9.193715 0 16.688592-7.494877 16.688592-16.688591v-19.486679c0-9.193715-7.494877-16.688592-16.688592-16.688592H549.724212z" p-id="67063"></path><path d="M671.540939 595.492925c-22.984288 0-41.571582-18.587294-41.571582-41.571582v-25.882307c0-22.884356 18.687226-41.571582 41.571582-41.571582h171.582707c22.984288 0 41.571582 18.587294 41.571582 41.571582v25.882307c0 22.884356-18.687226 41.571582-41.571582 41.571582H671.540939z m168.884551-44.269738v-20.386064H674.339026v20.386064H840.42549z" p-id="67064"></path></svg>