<?xml version="1.0" standalone="no"?><!DOCTYPE svg PUBLIC "-//W3C//DTD SVG 1.1//EN" "http://www.w3.org/Graphics/SVG/1.1/DTD/svg11.dtd"><svg t="1568617126202" class="icon" viewBox="0 0 1024 1024" version="1.1" xmlns="http://www.w3.org/2000/svg" p-id="2170" xmlns:xlink="http://www.w3.org/1999/xlink" width="200" height="200"><defs><style type="text/css"></style></defs><path d="M919.2448 520.0384c-16.128-138.9056-94.0544-232.7552-223.488-284.6208a93.2864 93.2864 0 0 1-28.2624-17.3568c-64.4608-59.904-140.6464-90.2144-238.592-92.416-11.9808 1.3824-34.304 2.6112-56.0128 6.7584A333.3632 333.3632 0 0 0 104.448 496.3328c13.7728 124.7744 80.9472 213.8112 193.0752 268.8512 14.848 7.2704 27.0336 16.2816 38.7072 27.7504 98.5088 96.9728 215.7056 128.7168 347.4944 88.2176 157.2864-48.3328 254.464-198.0416 235.52-361.1136zM263.9872 685.1584c-52.1216-32.9216-113.408-117.9136-112.128-223.0784 1.4336-113.3056 53.5552-198.912 152.8832-253.44 94.3616-51.8144 207.5136-37.8368 272.5376 5.8368-236.3904-0.4096-405.7088 253.7984-313.2928 470.6816z m496.5888-179.0464L589.824 676.864a24.32 24.32 0 0 1-34.3552 0l-102.5536-102.5536a24.32 24.32 0 0 1 34.3552-34.3552l68.1984 68.7104a24.32 24.32 0 0 0 34.3552 0l136.3968-136.9088a24.32 24.32 0 0 1 34.3552 34.3552z" p-id="2171"></path></svg>