<?xml version="1.0" standalone="no"?><!DOCTYPE svg PUBLIC "-//W3C//DTD SVG 1.1//EN" "http://www.w3.org/Graphics/SVG/1.1/DTD/svg11.dtd"><svg t="1568883050031" class="icon" viewBox="0 0 1024 1024" version="1.1" xmlns="http://www.w3.org/2000/svg" p-id="4818" xmlns:xlink="http://www.w3.org/1999/xlink" width="200" height="200"><defs><style type="text/css"></style></defs><path d="M607.232 499.712h-50.176V122.88c0-17.408-14.336-31.744-31.744-31.744s-31.744 14.336-31.744 31.744v376.832h-50.176V122.88c0-45.056 36.864-81.92 81.92-81.92s81.92 36.864 81.92 81.92v376.832z" p-id="4819"></path><path d="M720.896 518.144h-50.176V179.2c0-17.408-14.336-31.744-31.744-31.744s-31.744 14.336-31.744 31.744v75.776h-50.176v-75.776c0-45.056 36.864-81.92 81.92-81.92s81.92 36.864 81.92 81.92v338.944zM418.816 952.32H368.64c0-31.744-15.36-49.152-48.128-82.944-34.816-35.84-80.896-83.968-118.784-179.2-40.96-104.448-57.344-161.792-58.368-168.96l-5.12-17.408 15.36-10.24c3.072-2.048 67.584-40.96 130.048 4.096 20.48 15.36 34.816 39.936 47.104 63.488V217.088c0-45.056 36.864-81.92 81.92-81.92s81.92 36.864 81.92 81.92v282.624h-50.176V217.088c0-17.408-14.336-31.744-31.744-31.744s-31.744 14.336-31.744 31.744v443.392l-27.648-3.072c-5.12-1.024-17.408-3.072-26.624-11.264-14.336-12.288-24.576-31.744-34.816-53.248-10.24-20.48-22.528-44.032-35.84-53.248-20.48-15.36-43.008-13.312-57.344-9.216 9.216 29.696 25.6 78.848 51.2 142.336C283.648 757.76 324.608 800.768 358.4 835.584c31.744 33.792 60.416 63.488 60.416 116.736z" p-id="4820"></path><path d="M777.216 952.32H727.04c0-46.08 9.216-74.752 20.48-106.496 16.384-48.128 35.84-107.52 35.84-267.264 0-45.056-1.024-71.68-3.072-103.424-2.048-37.888-4.096-80.896-4.096-162.816 0-7.168-2.048-30.72-25.6-31.744-21.504-2.048-37.888 12.288-37.888 12.288L678.912 256c3.072-3.072 32.768-28.672 74.752-25.6 41.984 3.072 71.68 36.864 71.68 81.92 0 80.896 2.048 122.88 4.096 160.768 2.048 30.72 3.072 60.416 3.072 106.496 0 166.912-22.528 234.496-38.912 282.624-9.216 29.696-16.384 52.224-16.384 90.112z" p-id="4821"></path></svg>